<svg xmlns="http://www.w3.org/2000/svg" viewBox="0 0 100 100">
    <path d="M50 12c4-8 14-9 18-4-2 6-9 9-14 8z" fill="#8FD3B6"/>
    <path d="M50 16c20 0 34 16 34 36 0 22-16 38-34 38S16 74 16 52c0-20 14-36 34-36z" fill="#FFC27A"/>
    <path d="M50 16c-9 0-17 4-23 11 7 4 15 5 23 5s16-1 23-5c-6-7-14-11-23-11z" fill="#FFD79B" opacity=".7"/>
    <circle cx="40" cy="58" r="3.4" fill="#7A4A33"/>
    <circle cx="60" cy="58" r="3.4" fill="#7A4A33"/>
    <circle cx="34" cy="66" r="4.5" fill="#FF9DAE" opacity=".7"/>
    <circle cx="66" cy="66" r="4.5" fill="#FF9DAE" opacity=".7"/>
    <path d="M45 67c3 3 7 3 10 0" stroke="#7A4A33" stroke-width="2.2" fill="none" stroke-linecap="round"/>
</svg>