<svg xmlns="http://www.w3.org/2000/svg" width="512" height="512" viewBox="0 0 512 512">
  
  <rect x="40" y="40" width="432" height="432" rx="37" fill="#F7F3E8" stroke="#211D17" stroke-width="10.368"/>
  <rect x="109.12" y="394.23999999999995" width="293.76000000000005" height="9.504" rx="3" fill="rgba(33, 29, 23, 0.15)"/>
  <path d="M251.01 338.61Q226.92 338.61 211.38 332.41Q195.84 326.21 188.28 315.23Q180.73 304.25 180.73 290.14Q180.73 279.02 187.21 269.33Q193.70 259.63 207.10 252.79Q215.23 248.80 225.92 246.23Q205.39 237.96 195.13 226.84Q181.01 211.73 181.01 191.77Q181.01 175.10 189.99 161.05Q198.98 147.01 216.65 138.60Q234.33 130.19 260.28 130.19Q282.66 130.19 298.48 137.25Q314.31 144.30 322.79 156.56Q331.27 168.82 331.27 184.36Q331.27 197.33 324.43 208.67Q317.59 220 303.62 227.70Q296.49 231.69 287.36 234.26Q306.61 242.10 317.02 252.36Q331.13 266.48 331.13 283.87Q331.13 299.98 321.65 312.31Q312.17 324.64 294.21 331.63Q276.24 338.61 251.01 338.61M271.11 228.56Q274.39 225.56 277.38 222Q283.23 214.58 286.51 205.18Q289.79 195.77 289.79 184.65Q289.79 170.82 285.58 161.12Q281.38 151.43 273.61 146.23Q265.84 141.02 254.86 141.02Q245.02 141.02 237.82 145.59Q230.62 150.15 226.70 157.99Q222.78 165.83 222.78 176.09Q222.78 188.35 227.13 198.05Q231.48 207.74 242.31 215.30Q252.72 222.85 271.11 228.56M237.61 250.37Q231.05 255.78 227.77 264.20Q223.21 275.60 223.21 286.86Q223.21 306.54 231.91 317.37Q240.60 328.20 256.43 328.20Q270.97 328.20 278.95 319.58Q286.94 310.95 286.94 295.70Q286.94 286.01 282.87 277.88Q278.81 269.75 268.97 263.20Q259.14 256.64 241.60 251.51Q239.61 250.94 237.61 250.37" fill="#211D17"/>
</svg>